<svg width="1440" height="224" viewBox="0 0 1440 224" fill="none" xmlns="http://www.w3.org/2000/svg">
<g opacity="0.5">
<path d="M-233 118.008C-41.9231 85.3919 37.6923 -36.4877 149.154 12.4358C260.615 61.3593 350.088 220.146 508.56 199.546C667.033 178.947 749.681 69.942 839.912 61.359C930.143 52.7759 889.956 86.2499 1062.84 142.898C1235.71 199.546 1153.07 224.437 1419.21 142.898C1685.35 61.359 1444.23 142.898 1804.4 142.898" stroke="#2069E0"/>
<path d="M-142.77 330.01C-112.693 300.255 -22.3607 249.672 98.3514 285.378C249.241 330.01 203.747 378.933 375.868 378.933C547.989 378.933 566.945 330.01 703.428 330.01C839.912 330.01 896.78 305.977 933.176 285.378C962.292 268.898 1106.05 340.881 1174.3 378.933C1271.6 312.271 1488.51 189.59 1577.68 232.162C1689.14 285.378 1661.09 427.857 1837 378.933" stroke="#2069E0"/>
<path d="M-228.701 121.396C-136.28 104.448 -67.5279 65.2548 -6.80714 39.8775C55.3506 14.9253 98.6787 -0.115563 159.952 23.1814C274.302 69.7752 360.417 218.671 517.842 199.052C675.267 179.434 756.688 74.4751 844.355 65.3198C931.676 56.3607 900.249 91.6685 1068.15 147.431C1237.43 198.208 1169.04 216.071 1426.76 140.442C1685.53 65.3198 1454.56 149.761 1805.95 147.431" stroke="#2069E0"/>
<path d="M-224.408 124.888C-135.104 107.299 -65.2731 67.5363 -1.55283 45.2132C65.0416 23.7402 103.929 11.8976 170.744 34.0296C287.983 78.2938 370.739 217.298 527.118 198.661C683.496 180.023 763.689 79.1109 848.793 69.3834C933.203 60.0483 910.535 97.1898 1073.45 152.067C1239.13 196.971 1185.01 207.808 1434.3 138.089C1685.71 69.3834 1464.88 156.726 1807.5 152.067" stroke="#2069E0"/>
<path d="M-220.111 128.524C-133.925 110.296 -63.0145 69.9633 3.70539 50.6943C74.7364 32.7005 109.182 24.0561 181.54 45.0234C301.667 86.9578 381.066 216.071 536.397 198.415C691.729 180.758 770.694 83.8921 853.234 73.5924C934.734 63.8813 920.826 102.857 1078.76 156.848C1240.84 195.881 1200.99 199.69 1441.85 135.881C1685.89 73.5924 1475.21 163.837 1809.05 156.848" stroke="#2069E0"/>
<path d="M-215.812 132.378C-132.743 113.509 -60.7539 72.607 8.96558 56.3922C84.4332 41.8776 114.438 36.4314 192.338 56.2338C315.354 95.8385 391.395 215.061 545.679 198.386C699.963 181.71 777.701 88.89 857.677 78.0181C936.267 67.931 931.118 108.74 1084.07 161.846C1242.55 195.007 1216.96 191.789 1449.39 133.89C1686.07 78.0181 1485.54 171.165 1810.61 161.846" stroke="#2069E0"/>
<path d="M-211.514 136.573C-131.561 117.063 -58.4933 75.5919 14.2257 62.4311C94.13 51.3958 119.694 49.1478 203.136 67.7853C329.04 105.06 401.723 214.392 554.96 198.697C708.197 183.003 784.708 94.2291 862.121 82.785C937.8 72.3218 941.411 114.965 1089.38 167.185C1244.26 194.474 1232.94 184.229 1456.94 132.24C1686.26 82.785 1495.87 178.834 1812.16 167.185" stroke="#2069E0"/>
<path d="M-207.221 141.327C-130.386 121.177 -56.2385 79.1361 19.4801 69.0295C103.821 61.4733 124.943 62.4236 213.928 79.8963C342.721 114.842 412.046 214.282 564.236 199.569C716.426 184.855 791.709 100.128 866.558 88.1113C939.328 77.2721 951.698 121.749 1094.68 173.084C1245.97 194.501 1248.91 177.228 1464.49 131.149C1686.43 88.1113 1506.19 187.062 1813.71 173.084" stroke="#2069E0"/>
<path d="M-202.924 147.043C-129.206 126.253 -53.9799 83.6428 24.7383 76.5903C113.516 72.5134 130.197 76.6619 224.725 92.9697C356.406 125.585 422.373 215.135 573.516 201.402C724.659 187.669 798.714 106.988 870.999 94.4C940.859 83.1847 961.988 129.495 1099.99 179.945C1247.68 195.49 1264.88 171.19 1472.03 131.021C1686.61 94.4 1516.52 196.252 1815.26 179.945" stroke="#2069E0"/>
<path d="M-198.625 154.363C-128.024 132.932 -51.7193 89.7527 29.9984 85.7544C123.213 85.1567 135.453 92.5034 235.523 107.646C370.092 137.932 432.702 217.591 582.797 204.839C732.893 192.087 805.72 115.453 875.443 102.292C942.392 90.7007 972.281 138.845 1105.3 188.409C1249.39 198.082 1280.86 166.755 1479.58 132.496C1686.8 102.292 1526.84 207.046 1816.82 188.409" stroke="#2069E0"/>
<path d="M-194.332 163.074C-126.849 141.003 -49.4645 97.2537 35.2527 96.3096C132.903 99.191 140.703 109.736 246.315 123.714C383.773 151.67 443.024 221.438 592.073 209.667C741.122 197.896 812.721 125.308 879.88 111.575C943.919 99.6077 982.568 149.586 1110.6 198.264C1251.09 202.065 1296.83 163.711 1487.12 135.362C1686.97 111.575 1537.17 219.231 1818.37 198.264" stroke="#2069E0"/>
<path d="M-190.035 171.892C-125.669 149.181 -47.2059 104.862 40.511 106.972C142.598 113.333 145.956 127.076 257.111 139.889C397.458 165.516 453.351 225.393 601.353 214.603C749.354 203.813 819.726 135.271 884.321 120.965C945.45 108.622 992.858 160.434 1115.91 208.227C1252.8 206.156 1312.8 160.775 1494.67 138.336C1687.15 120.965 1547.49 231.524 1819.92 208.227" stroke="#2069E0"/>
<path d="M-185.736 180.976C-124.487 157.624 -44.9452 112.736 45.7712 117.9C152.295 127.74 151.212 144.681 267.909 156.33C411.144 179.627 463.68 229.613 610.634 219.804C757.589 209.994 826.733 145.499 888.765 130.621C946.983 117.902 1003.15 171.548 1121.22 218.455C1254.51 210.512 1328.78 158.104 1502.22 141.575C1687.34 130.621 1557.82 244.081 1821.47 218.455" stroke="#2069E0"/>
<path d="M-181.438 190.291C-123.306 166.299 -42.6847 120.842 51.0313 129.06C161.992 142.379 156.468 162.519 278.707 173.002C424.831 193.97 474.008 234.065 619.916 225.236C765.823 216.408 833.74 155.959 893.208 140.509C948.516 127.414 1013.44 182.893 1126.53 228.915C1256.23 215.1 1344.75 155.664 1509.77 145.046C1687.52 140.509 1568.15 256.871 1823.03 228.915" stroke="#2069E0"/>
<path d="M-177.145 199.803C-122.13 175.171 -40.4299 129.144 56.2856 140.416C171.683 157.215 161.717 180.552 289.499 189.871C438.512 208.509 484.331 238.713 629.191 230.865C774.052 223.018 840.741 166.615 897.645 150.593C950.043 137.122 1023.73 194.435 1131.83 239.571C1257.93 219.885 1360.72 153.422 1517.31 148.713C1687.7 150.593 1578.47 269.857 1824.58 239.571" stroke="#2069E0"/>
<path d="M-172.846 209.482C-120.948 184.21 -38.1693 137.613 61.5458 151.94C181.38 172.217 166.973 198.753 300.297 206.907C452.198 223.215 494.66 243.528 638.473 236.662C782.286 229.795 847.748 177.439 902.088 160.845C951.576 146.997 1034.02 206.144 1137.14 250.395C1259.64 224.836 1376.7 151.346 1524.86 152.548C1687.88 160.845 1588.8 283.01 1826.13 250.395" stroke="#2069E0"/>
<path d="M-168.549 223.071C-119.769 197.158 -35.9107 149.992 66.804 167.373C191.074 191.129 172.227 220.864 311.093 227.853C465.883 241.831 504.986 252.253 647.753 246.368C790.519 240.482 854.753 192.172 906.53 175.005C953.107 160.782 1044.31 221.763 1142.45 265.128C1261.35 233.697 1392.67 153.18 1532.4 160.292C1688.06 175.005 1599.13 300.073 1827.69 265.128" stroke="#2069E0"/>
<path d="M-164.256 240.372C-118.593 213.819 -33.6559 166.083 72.0583 186.518C200.765 213.754 177.477 246.686 321.885 252.511C479.564 264.159 515.309 264.69 657.028 259.786C798.747 254.881 861.754 210.617 910.967 192.878C954.635 178.279 1054.6 241.094 1147.76 283.573C1263.06 246.271 1408.64 158.726 1539.95 171.748C1688.24 192.878 1609.45 320.848 1829.23 283.573" stroke="#2069E0"/>
<path d="M-159.955 257.973C-117.409 230.779 -31.3934 182.474 77.3204 205.963C210.464 236.678 182.734 272.809 332.685 277.468C493.252 286.787 525.64 277.427 666.312 273.504C806.984 269.58 868.762 229.362 915.412 211.052C956.17 196.076 1064.89 260.725 1153.07 302.318C1264.77 259.144 1424.62 164.572 1547.5 183.504C1688.42 211.052 1619.78 341.923 1830.79 302.318" stroke="#2069E0"/>
<path d="M-155.658 275.784C-116.23 247.95 -29.1347 199.076 82.5787 225.619C220.159 259.813 187.988 299.142 343.482 302.637C506.937 309.626 535.967 290.375 675.591 287.432C815.216 284.49 875.767 248.318 919.854 229.435C957.701 214.084 1075.18 280.566 1158.37 321.274C1266.48 272.228 1440.59 170.629 1555.04 195.471C1688.6 229.435 1630.11 363.209 1832.34 321.274" stroke="#2069E0"/>
<path d="M-151.361 293.75C-115.05 265.276 -26.8761 215.832 87.8369 245.429C229.854 283.103 193.242 325.63 354.278 327.96C520.621 332.619 546.293 303.477 684.871 301.516C823.449 299.554 882.772 267.429 924.295 247.974C959.232 232.246 1085.48 300.562 1163.68 340.385C1268.19 285.467 1456.57 176.84 1562.59 207.592C1688.78 247.974 1640.44 384.649 1833.9 340.385" stroke="#2069E0"/>
<path d="M-147.066 311.835C-113.872 282.721 -24.6194 232.707 93.0931 265.359C239.547 306.511 198.493 352.237 365.072 353.402C534.304 355.731 556.618 316.699 694.149 315.718C831.679 314.737 889.775 286.658 928.734 266.631C960.761 250.527 1095.76 320.677 1168.99 359.614C1269.89 298.824 1472.54 183.171 1570.13 219.833C1688.96 266.631 1650.76 406.208 1835.45 359.614" stroke="#2069E0"/>
</g>
</svg>
